<svg width="18" height="18" viewBox="0 0 18 18" fill="none" xmlns="http://www.w3.org/2000/svg">
<g clip-path="url(#clip0)">
<path d="M8.13898 14.2866L3.71341 9.86101L3.43559 9.58319C3.40051 9.54223 3.35734 9.50896 3.30879 9.48547C3.26025 9.46198 3.20737 9.44878 3.15348 9.4467C3.09959 9.44462 3.04586 9.4537 2.99564 9.47337C2.94543 9.49305 2.89982 9.52289 2.86169 9.56102C2.82356 9.59915 2.79372 9.64476 2.77404 9.69497C2.75437 9.74518 2.74529 9.79892 2.74737 9.85281C2.74945 9.9067 2.76265 9.95958 2.78614 10.0081C2.80963 10.0567 2.8429 10.0998 2.88386 10.1349L1.49866 11.5201C1.13188 11.887 0.925831 12.3846 0.925831 12.9033C0.925831 13.4221 1.13188 13.9197 1.49866 14.2866L1.77649 14.5644L0.943022 15.394C0.870142 15.4673 0.829235 15.5664 0.829235 15.6698C0.829235 15.7732 0.870142 15.8724 0.943022 15.9457L1.22084 16.2235L0.391292 17.057C0.35033 17.0921 0.317062 17.1352 0.293575 17.1838C0.270088 17.2323 0.25689 17.2852 0.254808 17.3391C0.252727 17.393 0.261807 17.4467 0.281479 17.4969C0.301152 17.5471 0.330991 17.5927 0.369125 17.6309C0.407259 17.669 0.452864 17.6988 0.503077 17.7185C0.55329 17.7382 0.607028 17.7473 0.660917 17.7452C0.714806 17.7431 0.767683 17.7299 0.81623 17.7064C0.864776 17.6829 0.907943 17.6497 0.943022 17.6087L1.77257 16.7792L2.05039 17.057C2.12371 17.1299 2.22288 17.1708 2.32626 17.1708C2.42963 17.1708 2.52881 17.1299 2.60212 17.057L3.43167 16.2274L3.7095 16.5052C4.07639 16.872 4.57394 17.0781 5.09273 17.0781C5.61152 17.0781 6.10907 16.872 6.47597 16.5052L7.86116 15.12C7.89624 15.161 7.93941 15.1943 7.98796 15.2178C8.0365 15.2413 8.08938 15.2545 8.14327 15.2565C8.19716 15.2586 8.2509 15.2495 8.30111 15.2299C8.35132 15.2102 8.39693 15.1804 8.43506 15.1422C8.47319 15.1041 8.50303 15.0585 8.52271 15.0083C8.54238 14.9581 8.55146 14.9043 8.54938 14.8504C8.5473 14.7965 8.5341 14.7437 8.51061 14.6951C8.48712 14.6466 8.45385 14.6034 8.41289 14.5683L8.13898 14.2866Z" fill="#4C60EB"/>
<path d="M7.72421 8.06106C7.82789 7.94979 7.88433 7.80263 7.88165 7.65057C7.87897 7.49851 7.81737 7.35343 7.70983 7.24589C7.60229 7.13835 7.45721 7.07675 7.30515 7.07407C7.15309 7.07138 7.00593 7.12783 6.89466 7.2315L4.54688 9.57929L5.37643 10.4088L7.72421 8.06106Z" fill="#4C60EB"/>
<path d="M9.93897 10.2758L7.59119 12.6236L8.42074 13.4532L10.7685 11.1054C10.8722 10.9941 10.9286 10.8469 10.926 10.6949C10.9233 10.5428 10.8617 10.3977 10.7541 10.2902C10.6466 10.1827 10.5015 10.1211 10.3495 10.1184C10.1974 10.1157 10.0502 10.1721 9.93897 10.2758Z" fill="#4C60EB"/>
<path d="M17.8862 0.113786C17.8129 0.0409069 17.7137 0 17.6104 0C17.507 0 17.4078 0.0409069 17.3345 0.113786L15.2606 2.18766L14.9828 1.90984C14.9095 1.83696 14.8103 1.79606 14.7069 1.79606C14.6036 1.79606 14.5044 1.83696 14.4311 1.90984L13.535 2.80591L13.2572 2.52809C12.8903 2.16131 12.3927 1.95526 11.8739 1.95526C11.3551 1.95526 10.8576 2.16131 10.4907 2.52809L8.41291 4.60588C8.33805 4.54178 8.24177 4.50828 8.14329 4.51208C8.04481 4.51589 7.95139 4.55671 7.8817 4.6264C7.81201 4.69609 7.77119 4.78951 7.76738 4.88799C7.76358 4.98647 7.79708 5.08276 7.86118 5.15761L8.139 5.43543V5.39239L12.5607 9.78275L12.8385 10.0997C12.9099 10.1795 13.0095 10.2286 13.1163 10.2367C13.2192 10.2394 13.319 10.2014 13.3941 10.131C13.4658 10.0579 13.506 9.95952 13.506 9.8571C13.506 9.75467 13.4658 9.65633 13.3941 9.58319L15.4719 7.5054C15.8387 7.1385 16.0448 6.64095 16.0448 6.12216C16.0448 5.60337 15.8387 5.10582 15.4719 4.73892L15.1941 4.4611L16.0902 3.56503C16.1631 3.49172 16.204 3.39254 16.204 3.28917C16.204 3.18579 16.1631 3.08662 16.0902 3.0133L15.8124 2.73939L17.8823 0.669429C17.9192 0.633312 17.9487 0.590239 17.9689 0.542696C17.9891 0.495152 17.9997 0.444079 18 0.392423C18.0004 0.340767 17.9905 0.289549 17.971 0.241726C17.9515 0.193903 17.9226 0.15042 17.8862 0.113786Z" fill="#4C60EB"/>
</g>
<defs>
<clipPath id="clip0">
<rect width="18" height="18" fill="white"/>
</clipPath>
</defs>
</svg>
