<svg width="20" height="21" viewBox="0 0 20 21" fill="none" xmlns="http://www.w3.org/2000/svg">
<path d="M9.7289 6.38293C10.3398 6.38293 10.9371 6.5641 11.4451 6.90353C11.953 7.24295 12.349 7.72538 12.5828 8.28983C12.8166 8.85427 12.8777 9.47536 12.7585 10.0746C12.6394 10.6738 12.3452 11.2242 11.9131 11.6562C11.4811 12.0882 10.9307 12.3824 10.3315 12.5016C9.73232 12.6208 9.11122 12.5596 8.54678 12.3258C7.98234 12.092 7.4999 11.6961 7.16048 11.1881C6.82105 10.6801 6.63989 10.0829 6.63989 9.47193C6.64016 8.65276 6.96569 7.86721 7.54494 7.28797C8.12418 6.70873 8.90972 6.3832 9.7289 6.38293ZM9.7289 7.30493C9.15417 7.30493 8.60299 7.53324 8.19659 7.93964C7.7902 8.34603 7.56189 8.89721 7.56189 9.47193C7.56189 10.0467 7.7902 10.5978 8.19659 11.0042C8.60299 11.4106 9.15417 11.6389 9.7289 11.6389C10.019 11.6477 10.3079 11.5982 10.5786 11.4933C10.8492 11.3884 11.0959 11.2301 11.3043 11.028C11.5126 10.826 11.6782 10.5841 11.7914 10.3168C11.9045 10.0495 11.9627 9.76218 11.9627 9.47193C11.9627 9.18168 11.9045 8.89439 11.7914 8.62709C11.6782 8.35979 11.5126 8.11792 11.3043 7.91582C11.0959 7.71373 10.8492 7.55552 10.5786 7.45058C10.3079 7.34565 10.019 7.29612 9.7289 7.30493Z" fill="#4C60EB"/>
<path d="M9.72903 0.850003C11.6597 0.845454 13.5484 1.41411 15.1556 2.48392C16.7628 3.55374 18.0163 5.07656 18.7573 6.85944C19.4982 8.64232 19.6933 10.605 19.3177 12.4989C18.9422 14.3927 18.0129 16.1325 16.6477 17.4977C15.2825 18.8629 13.5427 19.7922 11.6489 20.1677C9.75504 20.5433 7.79234 20.3482 6.00946 19.6072C4.22658 18.8663 2.70376 17.6128 1.63395 16.0056C0.564136 14.3983 -0.00452116 12.5097 2.70712e-05 10.579C0.01108 8.00212 1.03965 5.53392 2.8618 3.71177C4.68395 1.88962 7.15214 0.861056 9.72903 0.850003ZM9.72903 1.818C7.99626 1.818 6.30242 2.33183 4.86168 3.2945C3.42094 4.25717 2.29802 5.62545 1.63492 7.22631C0.971819 8.82718 0.798322 10.5887 1.13637 12.2882C1.47441 13.9877 2.30882 15.5487 3.53406 16.774C4.75931 17.9992 6.32037 18.8336 8.01984 19.1717C9.71931 19.5097 11.4809 19.3362 13.0817 18.6731C14.6826 18.01 16.0509 16.8871 17.0135 15.4464C17.9762 14.0056 18.49 12.3118 18.49 10.579C18.4906 9.42834 18.2643 8.28886 17.8242 7.22569C17.3841 6.16252 16.7388 5.19651 15.9252 4.38287C15.1115 3.56923 14.1455 2.92392 13.0823 2.48382C12.0192 2.04373 10.8797 1.81748 9.72903 1.818Z" fill="#4C60EB"/>
<path d="M7.3319 12.885H12.1319C12.8748 12.8836 13.589 13.1718 14.1228 13.6885C14.6566 14.2051 14.968 14.9095 14.9909 15.652L14.1149 16.436V15.744C14.112 15.4866 14.0584 15.2322 13.9572 14.9955C13.856 14.7588 13.7091 14.5444 13.5249 14.3645C13.3407 14.1846 13.1229 14.0428 12.8839 13.9471C12.6449 13.8515 12.3893 13.8038 12.1319 13.807H7.3319C6.81907 13.8099 6.32806 14.0149 5.96542 14.3775C5.60279 14.7402 5.39779 15.2312 5.3949 15.744V16.436L4.4729 15.652C4.51121 14.9147 4.82745 14.2194 5.35795 13.706C5.88844 13.1925 6.59378 12.8992 7.3319 12.885Z" fill="#4C60EB"/>
</svg>
