<svg width="22" height="22" viewBox="0 0 22 22" fill="none" xmlns="http://www.w3.org/2000/svg">
<circle cx="11.4231" cy="10.7304" r="9.23846" fill="#274FED" stroke="white" stroke-width="2.67692"/>
<path fill-rule="evenodd" clip-rule="evenodd" d="M8.12522 7.66496H8.49128C8.55229 7.10008 9.04038 6.65625 9.63015 6.65625H13.1891C13.7585 6.65625 14.2466 7.10008 14.3076 7.66496H14.694C15.4465 7.66496 16.077 8.29036 16.077 9.03681V13.2936C16.077 14.04 15.4465 14.6452 14.694 14.6452H8.12522C7.35242 14.6452 6.74231 14.04 6.74231 13.2936V9.03681C6.74231 8.29036 7.35242 7.66496 8.12522 7.66496ZM11.3995 8.59298C12.8434 8.59298 14.0026 9.74291 14.0026 11.1551C14.0026 12.5875 12.8434 13.7374 11.3995 13.7374C9.97588 13.7374 8.81667 12.5875 8.81667 11.1551C8.81667 9.74291 9.97588 8.59298 11.3995 8.59298ZM8.12522 8.41141C8.47095 8.41141 8.73533 8.69385 8.73533 9.01663C8.73533 9.3596 8.47095 9.62186 8.12522 9.62186C7.79983 9.62186 7.53545 9.3596 7.53545 9.01663C7.53545 8.69385 7.79983 8.41141 8.12522 8.41141Z" fill="white"/>
</svg>
