<svg width="8" height="6" viewBox="0 0 8 6" fill="none" xmlns="http://www.w3.org/2000/svg">
<path fill-rule="evenodd" clip-rule="evenodd" d="M1.90907 0.847225H2.1753C2.21967 0.436404 2.57464 0.113617 3.00357 0.113617H5.5919C6.00604 0.113617 6.36101 0.436404 6.40538 0.847225H6.6864C7.23365 0.847225 7.69215 1.30206 7.69215 1.84493V4.94076C7.69215 5.48363 7.23365 5.92379 6.6864 5.92379H1.90907C1.34703 5.92379 0.90332 5.48363 0.90332 4.94076V1.84493C0.90332 1.30206 1.34703 0.847225 1.90907 0.847225ZM4.29034 1.52214C5.34047 1.52214 6.18352 2.35846 6.18352 3.38551C6.18352 4.42723 5.34047 5.26355 4.29034 5.26355C3.25501 5.26355 2.41195 4.42723 2.41195 3.38551C2.41195 2.35846 3.25501 1.52214 4.29034 1.52214ZM1.90907 1.39009C2.16051 1.39009 2.35279 1.59551 2.35279 1.83026C2.35279 2.07969 2.16051 2.27042 1.90907 2.27042C1.67243 2.27042 1.48015 2.07969 1.48015 1.83026C1.48015 1.59551 1.67243 1.39009 1.90907 1.39009Z" fill="white"/>
</svg>
