<svg width="20" height="20" viewBox="0 0 20 20" fill="none" xmlns="http://www.w3.org/2000/svg">
<path d="M4.16966 5.83334H4.14619C3.89067 5.84875 3.63472 5.81132 3.39432 5.72338C3.15392 5.63543 2.93423 5.49887 2.74897 5.32222C2.56372 5.14557 2.41687 4.93262 2.3176 4.69667C2.21833 4.46072 2.16878 4.20684 2.17203 3.95088C2.17527 3.69491 2.23126 3.44237 2.33649 3.20902C2.44171 2.97566 2.59392 2.76651 2.7836 2.59462C2.97328 2.42272 3.19637 2.29178 3.43892 2.20997C3.68148 2.12816 3.9383 2.09724 4.19334 2.11913C4.44965 2.10056 4.70702 2.13523 4.94929 2.22095C5.19155 2.30666 5.41345 2.44158 5.60106 2.6172C5.78866 2.79282 5.93789 3.00536 6.03938 3.24145C6.14087 3.47754 6.19241 3.73207 6.19078 3.98905C6.18914 4.24602 6.13435 4.49988 6.02986 4.73465C5.92537 4.96943 5.77343 5.18005 5.58361 5.35326C5.39378 5.52648 5.17017 5.65855 4.92684 5.74117C4.6835 5.82379 4.42571 5.85517 4.16966 5.83334Z" fill="#858585"/>
<path d="M5.84847 8.3335H2.51514V18.3335H5.84847V8.3335Z" fill="#858585"/>
<path d="M14.5979 8.3335C14.0362 8.33503 13.4821 8.4635 12.977 8.70932C12.472 8.95513 12.029 9.31192 11.6812 9.75302V8.3335H8.3479V18.3335H11.6812V13.7502C11.6812 13.3081 11.8568 12.8842 12.1694 12.5717C12.482 12.2591 12.9059 12.0835 13.3479 12.0835C13.7899 12.0835 14.2139 12.2591 14.5264 12.5717C14.839 12.8842 15.0146 13.3081 15.0146 13.7502V18.3335H18.3479V12.0835C18.3479 11.591 18.2509 11.1034 18.0624 10.6484C17.874 10.1935 17.5978 9.78007 17.2496 9.43185C16.9013 9.08363 16.4879 8.8074 16.033 8.61895C15.578 8.43049 15.0904 8.3335 14.5979 8.3335Z" fill="#858585"/>
</svg>
