<svg width="20" height="20" viewBox="0 0 20 20" fill="none" xmlns="http://www.w3.org/2000/svg">
<path d="M15.1389 11.9825C14.5791 11.8621 14.1363 12.122 13.7442 12.3489C13.3427 12.5828 12.5791 13.2022 12.1415 13.0437C9.90074 12.1211 7.79328 10.1599 6.88099 7.91015C6.7202 7.46315 7.33671 6.69477 7.56886 6.28848C7.79414 5.89519 8.04865 5.4482 7.93257 4.88425C7.82767 4.37748 6.47085 2.65099 5.99106 2.17887C5.67464 1.86701 5.35049 1.69549 5.01773 1.66777C3.76667 1.61406 2.36943 3.28337 2.12438 3.68273C1.51046 4.53428 1.5139 5.66736 2.1347 7.04128C3.63081 10.7316 9.2894 16.3009 12.9936 17.8533C13.6771 18.1729 14.3022 18.3332 14.8637 18.3332C15.4131 18.3332 15.9024 18.1798 16.3229 17.8758C16.6401 17.693 18.3779 16.2264 18.3323 14.9417C18.3048 14.6143 18.1337 14.2868 17.8258 13.9697C17.3572 13.4855 15.6419 12.0882 15.1389 11.9825Z" fill="white"/>
</svg>
